<svg width="74" height="74" xmlns="http://www.w3.org/2000/svg" xmlns:xlink="http://www.w3.org/1999/xlink" xml:space="preserve" overflow="hidden"><g><path d="M56.0542 54.945 51.5456 52.3681C52.8528 49.1507 53.1523 45.6122 52.4043 42.2209 53.4835 41.9048 54.4856 41.5726 55.3397 41.2326 58.3149 40.0741 59.7877 36.723 58.6291 33.7476 57.4706 30.7724 54.1194 29.2996 51.1441 30.4582 51.1108 30.4712 51.0777 30.4845 51.0446 30.498 49.4316 31.0771 47.7839 31.5547 46.1112 31.9279 49.7423 29.5639 51.963 25.5517 52.0382 21.2195 52.0382 20.9466 52.0104 20.6799 51.9927 20.4101 55.8046 18.5202 57.3626 13.898 55.4727 10.0862 53.5829 6.27433 48.9606 4.71627 45.1488 6.60617 44.1431 7.10479 43.2585 7.81717 42.5569 8.69346 38.9686 7.40772 35.0452 7.40772 31.4569 8.69346 28.7991 5.37059 23.9508 4.83148 20.6279 7.48932 17.3051 10.1472 16.7659 14.9955 19.4238 18.3184 20.1265 19.1969 21.0131 19.9109 22.0212 20.4101 22.0034 20.6791 21.9757 20.9497 21.9757 21.2195 22.0511 25.5524 24.2724 29.5652 27.9042 31.9295 26.2302 31.5556 24.5813 31.0775 22.967 30.498 20.0027 29.3113 16.6377 30.7523 15.451 33.7166 14.2643 36.681 15.7053 40.0459 18.6696 41.2326 19.5175 41.5726 20.5296 41.9048 21.6049 42.2209 20.857 45.6122 21.1564 49.1507 22.4636 52.3681L17.955 54.945C14.4429 56.9514 13.2222 61.4252 15.2286 64.9373 17.235 68.4495 21.7087 69.6702 25.2209 67.6637L34.6759 62.261C36.2169 62.5282 37.7923 62.5282 39.3333 62.261L48.7884 67.6637C52.3005 69.6702 56.7743 68.4495 58.7807 64.9373 60.7871 61.4251 59.5664 56.9514 56.0542 54.945ZM48.5671 10.4278C50.2674 10.4256 51.6477 11.8022 51.6499 13.5025 51.651 14.3367 51.3135 15.1357 50.7147 15.7165 49.7776 13.8694 48.4359 12.2574 46.7896 11.0006 47.308 10.6291 47.9294 10.4288 48.5671 10.4278ZM23.2946 15.7165C22.0734 14.5353 22.0408 12.5877 23.222 11.3665 24.2805 10.2721 25.9802 10.1166 27.2197 11.0006 25.5735 12.2576 24.2318 13.8695 23.2946 15.7165ZM29.2963 20.4487C29.2963 19.5972 29.9865 18.907 30.838 18.907 31.6894 18.907 32.3796 19.5972 32.3796 20.4487 32.3796 21.3001 31.6894 21.9903 30.838 21.9903 29.9865 21.9903 29.2963 21.3001 29.2963 20.4487ZM37.0046 31.2403C34.1525 31.2403 31.8354 29.1699 31.8354 26.6153 31.8354 24.0608 34.1479 21.9903 37.0046 21.9903 39.8613 21.9903 42.1738 24.0608 42.1738 26.6153 42.1738 29.1699 39.859 31.2403 37.0046 31.2403ZM43.1713 21.9903C42.3198 21.9903 41.6296 21.3001 41.6296 20.4487 41.6296 19.5972 42.3198 18.907 43.1713 18.907 44.0228 18.907 44.713 19.5972 44.713 20.4487 44.713 21.3001 44.0228 21.9903 43.1713 21.9903Z" fill="#3F3F3F"/><path d="M39.1129 25.0737C39.1129 26.138 38.169 27.0007 37.0046 27.0007 35.8403 27.0007 34.8964 26.138 34.8964 25.0737 34.8964 24.0094 35.8403 23.1466 37.0046 23.1466 38.169 23.1466 39.1129 24.0094 39.1129 25.0737Z" fill="#3F3F3F"/></g></svg>