<svg width="96" height="96" xmlns="http://www.w3.org/2000/svg" xmlns:xlink="http://www.w3.org/1999/xlink" xml:space="preserve" overflow="hidden"><g transform="translate(-499 -363)"><path d="M547 443C529.4 443 515 428.6 515 411 515 393.4 529.4 379 547 379 564.6 379 579 393.4 579 411 579 428.6 564.6 443 547 443ZM547 373C526 373 509 390 509 411 509 432 526 449 547 449 568 449 585 432 585 411 585 390 568 373 547 373Z" stroke="#FFFFFF" fill="#4371C3"/><path d="M549 391 545 391 545 411C545 411.6 545.2 412.1 545.6 412.4L559.7 426.5 562.5 423.7 549 410.2 549 391Z" stroke="#FFFFFF" fill="#4371C3"/><path d="M549 385C549 386.105 548.105 387 547 387 545.895 387 545 386.105 545 385 545 383.895 545.895 383 547 383 548.105 383 549 383.895 549 385Z" stroke="#FFFFFF" fill="#4371C3"/><path d="M549 437C549 438.105 548.105 439 547 439 545.895 439 545 438.105 545 437 545 435.895 545.895 435 547 435 548.105 435 549 435.895 549 437Z" stroke="#FFFFFF" fill="#4371C3"/><path d="M523 411C523 412.105 522.105 413 521 413 519.895 413 519 412.105 519 411 519 409.895 519.895 409 521 409 522.105 409 523 409.895 523 411Z" stroke="#FFFFFF" fill="#4371C3"/><path d="M575 411C575 412.105 574.105 413 573 413 571.895 413 571 412.105 571 411 571 409.895 571.895 409 573 409 574.105 409 575 409.895 575 411Z" stroke="#FFFFFF" fill="#4371C3"/></g></svg>