<svg width="96" height="96" xmlns="http://www.w3.org/2000/svg" xmlns:xlink="http://www.w3.org/1999/xlink" xml:space="preserve" overflow="hidden"><g transform="translate(-494 -239)"><path d="M523 265C524.7 265 526 263.7 526 262L526 256C526 254.3 524.7 253 523 253 521.3 253 520 254.3 520 256L520 262C520 263.7 521.3 265 523 265Z" stroke="#FFFFFF" fill="#4371C3"/><path d="M514 307 530 307 530 315 514 315 514 307ZM514 295 530 295 530 303 514 303 514 295ZM514 283 530 283 530 291 514 291 514 283ZM550 283 550 291 534 291 534 283 550 283ZM570 283 570 291 554 291 554 283 570 283ZM570 303 554 303 554 295 570 295 570 303ZM570 315 554 315 554 307 570 307 570 315ZM534 303 534 295 550 295 550 303 534 303ZM534 315 534 307 550 307 550 315 534 315ZM508 321 576 321 576 277 508 277 508 321Z" stroke="#FFFFFF" fill="#4371C3"/><path d="M561 265C562.7 265 564 263.7 564 262L564 256C564 254.3 562.7 253 561 253 559.3 253 558 254.3 558 256L558 262C558 263.7 559.3 265 561 265Z" stroke="#FFFFFF" fill="#4371C3"/><path d="M568 259 568 262C568 265.9 564.9 269 561 269 557.1 269 554 265.9 554 262L554 259 530 259 530 262C530 265.9 526.9 269 523 269 519.1 269 516 265.9 516 262L516 259 508 259 508 273 576 273 576 259 568 259Z" stroke="#FFFFFF" fill="#4371C3"/></g></svg>