<svg width="96" height="96" xmlns="http://www.w3.org/2000/svg" xmlns:xlink="http://www.w3.org/1999/xlink" xml:space="preserve" overflow="hidden"><g><path d="M28 25 51 25 51 27 28 27Z" stroke="#FFFFFF" fill="#FFFFFF"/><path d="M28 40 51 40 51 42 28 42Z" stroke="#FFFFFF" fill="#FFFFFF"/><path d="M28 55 51 55 51 57 28 57Z" stroke="#FFFFFF" fill="#FFFFFF"/><path d="M28 70 51 70 51 72 28 72Z" stroke="#FFFFFF" fill="#FFFFFF"/><path d="M78 8 18 8 18 88 78 88ZM76 86 20 86 20 10 76 10Z" stroke="#FFFFFF" fill="#FFFFFF"/><path d="M68 21.5 59 21.5 59 30.5 68 30.5ZM66 28.5 61 28.5 61 23.5 66 23.5Z" stroke="#FFFFFF" fill="#FFFFFF"/><path d="M68 36.5 59 36.5 59 45.5 68 45.5ZM66 43.5 61 43.5 61 38.5 66 38.5Z" stroke="#FFFFFF" fill="#FFFFFF"/><path d="M68 51.5 59 51.5 59 60.5 68 60.5ZM66 58.5 61 58.5 61 53.5 66 53.5Z" stroke="#FFFFFF" fill="#FFFFFF"/><path d="M68 66.5 59 66.5 59 75.5 68 75.5ZM66 73.5 61 73.5 61 68.5 66 68.5Z" stroke="#FFFFFF" fill="#FFFFFF"/></g></svg>