<svg width="96" height="96" xmlns="http://www.w3.org/2000/svg" xmlns:xlink="http://www.w3.org/1999/xlink" xml:space="preserve" overflow="hidden"><g transform="translate(-308 -156)"><path d="M394 228C394 229.3 392.5 230.5 390 231.4L390 227.8C391.4 227.4 392.8 226.8 394 226.2L394 228ZM386 221.4 386 217.8C387.4 217.4 388.8 216.8 390 216.2L390 218C390 219.3 388.5 220.5 386 221.4ZM386 232.6C384.8 232.9 383.4 233.1 382 233.3L382 229.4C383.3 229.2 384.7 229 386 228.8L386 232.6ZM378 219.4C379.3 219.2 380.7 219 382 218.8L382 222.6C380.8 222.9 379.4 223.1 378 223.3L378 219.4ZM378 233.8C376.7 233.9 375.4 234 374 234L374 230C375.2 230 376.6 229.9 378 229.8L378 233.8ZM370 224 370 220C371.2 220 372.6 219.9 374 219.8L374 223.8C372.7 223.9 371.4 223.9 370 224ZM370 234C368.6 234 367.3 233.9 366 233.8L366 230C366.7 230 367.3 230 368 230 368.6 230 369.3 230 370 230L370 234ZM362 219.8C363.3 219.9 364.6 220 366 220L366 224C364.6 224 363.3 223.9 362 223.8L362 219.8ZM362 233.3C360.6 233.1 359.2 232.9 358 232.6L358 229.4C359.3 229.6 360.6 229.7 362 229.8L362 233.3ZM354 222.6 354 218.7C355.3 218.9 356.6 219.2 358 219.3L358 223.3C356.6 223.1 355.2 222.9 354 222.6ZM354 231.4C351.5 230.4 350 229.2 350 228L350 227.8C350 227.8 350 227.8 350.1 227.8 350.4 227.9 350.6 228 350.9 228 351.9 228.3 352.9 228.5 354 228.7L354 231.4ZM338 217.8C338.7 217.8 339.3 217.9 340 217.9L340 218C340 219.4 340.3 220.8 341 221.9 340 221.9 339 221.8 338 221.7L338 217.8ZM334 205.8C335.3 206 336.6 206.3 338 206.4L338 210.4C336.6 210.2 335.2 210 334 209.7L334 205.8ZM334 221.3C332.6 221.1 331.2 220.9 330 220.6L330 216.7C331.3 216.9 332.6 217.2 334 217.3L334 221.3ZM326 205 326 203.2C327.2 203.8 328.5 204.3 330 204.7L330 208.4C327.5 207.5 326 206.3 326 205ZM326 219.4C323.5 218.4 322 217.2 322 216L322 214.2C323.2 214.8 324.5 215.3 326 215.7L326 219.4ZM322 188.2C323.2 188.8 324.5 189.3 326 189.7L326 193.4C323.5 192.4 322 191.2 322 190L322 188.2ZM334 191.4 334 195.4C332.6 195.2 331.2 195 330 194.7L330 190.8C331.3 191 332.6 191.2 334 191.4ZM344 174C356.2 174 366 176.7 366 180 366 183.3 356.2 186 344 186 331.8 186 322 183.3 322 180 322 176.7 331.8 174 344 174ZM350 221.4C347.5 220.4 346 219.2 346 218L346 216.2C347.2 216.8 348.5 217.3 350 217.7L350 221.4ZM362 193.4 362 189.8C363.4 189.4 364.8 188.8 366 188.2L366 190C366 191.3 364.5 192.5 362 193.4ZM354 195.3 354 191.4C355.3 191.2 356.7 191 358 190.8L358 194.6C356.8 194.9 355.4 195.1 354 195.3ZM346 196 346 192C347.2 192 348.6 191.9 350 191.8L350 195.8C348.7 195.9 347.4 195.9 346 196ZM338 195.8 338 191.8C339.3 191.9 340.6 192 342 192L342 196C340.6 195.9 339.3 195.9 338 195.8ZM390 208C390 211.3 380.2 214 368 214 355.8 214 346 211.3 346 208 346 204.7 355.8 202 368 202 380.2 202 390 204.7 390 208ZM396 211 396 208C396 203.3 392.3 199.9 385.1 198 382.4 197.3 379.3 196.7 375.8 196.4 375.9 196 375.9 195.5 375.9 195 375.9 192.2 374.6 189.8 371.9 188L371.9 180C371.9 175.3 368.2 171.9 361 170 356.3 168.7 350.3 168 343.9 168 335.5 168 315.9 169.2 315.9 180L315.9 190C315.9 192.8 317.2 195.2 319.9 197L319.9 198.9C317.5 200.6 315.9 202.9 315.9 206L315.9 216C315.9 220.7 319.6 224.1 326.8 226 331.5 227.3 337.5 228 343.9 228 343.9 232.7 347.6 236.1 354.8 238 359.5 239.3 365.5 240 371.9 240 380.3 240 399.9 238.8 399.9 228L399.9 218C400 215.2 398.7 212.8 396 211Z" stroke="#FFFFFF" fill="#FFFFFF"/></g></svg>