<svg width="96" height="96" xmlns="http://www.w3.org/2000/svg" xmlns:xlink="http://www.w3.org/1999/xlink" xml:space="preserve" overflow="hidden"><g transform="translate(-349 -722)"><path d="M411.8 783.3C412.3 782.3 412 781.1 411 780.6 410 780.1 408.8 780.4 408.3 781.4L404.3 788.5 407 777.8C407.3 776.7 406.6 775.6 405.5 775.4 404.4 775.1 403.3 775.8 403.1 776.9L400.8 786.1 400.8 776.1C400.8 775 399.9 774.1 398.8 774.1 397.7 774.1 396.8 775 396.8 776.1L396.8 786.8 394.5 776.9C394.3 775.8 393.2 775.2 392.1 775.4 391 775.6 390.4 776.7 390.6 777.8L393.4 789.7C393.3 791.1 393 792.5 392.7 793.7 392.7 793.7 392.7 793.6 392.6 793.6 390.9 791 388.2 788.7 385.6 788 384.6 787.7 383.6 788.3 383.3 789.3 383 790.3 383.6 791.3 384.6 791.6 385.9 791.9 387.1 793.8 388.4 795.8 390 798.3 392 801.2 395 802.9L395 813.6 403.8 813.6 403.8 802.3C407.1 800.6 407.5 793.5 407.6 790.8L411.8 783.3Z" fill="#FFFFFF"/><path d="M376.5 784.1 385.2 784.2C385.2 784.2 385.2 784.2 385.2 784.2 386.3 784.2 387.2 783.3 387.2 782.2 387.2 781.1 386.3 780.2 385.2 780.2L377.1 780.1 387.7 777.4C388.8 777.1 389.4 776 389.1 775 388.8 773.9 387.7 773.3 386.7 773.6L377.5 776 386.3 771.2C387.3 770.7 387.6 769.5 387.1 768.5 386.6 767.5 385.4 767.2 384.4 767.7L375 772.7 382.6 766C383.4 765.3 383.5 764 382.8 763.2 382.1 762.4 380.8 762.3 380 763L370.8 771C369.5 771.6 368.2 772 366.9 772.2 366.9 772.2 366.9 772.1 367 772.1 368.5 769.3 369.2 765.9 368.6 763.3 368.4 762.3 367.3 761.7 366.3 761.9 365.3 762.1 364.7 763.2 364.9 764.2 365.2 765.5 364.2 767.4 363.1 769.5 361.7 772.1 360.1 775.2 360 778.7L350.6 783.8 354.8 791.5 364.7 786.2C367.7 788.3 374.1 785.3 376.5 784.1Z" fill="#FFFFFF"/><path d="M377.6 751.5 379.7 759.9C379.9 760.8 380.7 761.4 381.6 761.4 381.8 761.4 381.9 761.4 382.1 761.3 383.2 761 383.8 760 383.6 758.9L381.7 751 387 760.5C387.4 761.2 388 761.5 388.8 761.5 389.1 761.5 389.5 761.4 389.8 761.2 390.8 760.7 391.1 759.4 390.6 758.5L386 750.2 392.8 757.5C393.2 757.9 393.7 758.1 394.3 758.1 394.8 758.1 395.3 757.9 395.7 757.6 396.5 756.8 396.5 755.6 395.8 754.8L388.5 747 397 752.7C397.3 752.9 397.7 753 398.1 753 398.7 753 399.4 752.7 399.8 752.1 400.4 751.2 400.2 749.9 399.3 749.3L389.1 742.5C388.2 741.4 387.5 740.2 386.9 739.1 386.9 739.1 387 739.1 387 739.1 390 739.8 393.5 739.7 395.9 738.4 396.8 737.9 397.1 736.8 396.6 735.9 396.1 735 395 734.7 394.1 735.2 393 735.8 390.8 735.3 388.5 734.8 385.6 734.1 382.2 733.3 378.8 734.2L371.5 726.4 365.1 732.4 372.8 740.6C371.2 744.1 375.7 749.6 377.6 751.5Z" fill="#FFFFFF"/><path d="M443.4 790.8 435.8 782.5C437.1 779 432.6 773.5 430.8 771.5L428.8 763.1C428.5 762 427.5 761.4 426.4 761.6 425.3 761.9 424.7 762.9 424.9 764L426.8 771.9 421.5 762.3C421 761.3 419.8 761 418.8 761.5 417.8 762 417.5 763.2 418 764.2L422.6 772.6 415.8 765.3C415 764.5 413.8 764.4 413 765.2 412.2 766 412.1 767.2 412.9 768L420.2 775.9 411.8 770.2C410.9 769.6 409.6 769.8 409 770.7 408.4 771.6 408.6 772.9 409.5 773.5L419.6 780.4C420.5 781.5 421.2 782.7 421.8 783.8 421.8 783.8 421.7 783.8 421.7 783.8 418.7 783.1 415.2 783.2 412.8 784.5 411.9 785 411.5 786.1 412 787 412.5 787.9 413.6 788.3 414.5 787.8 415.6 787.2 417.8 787.7 420.1 788.3 423 789 426.4 789.8 429.8 789L437 796.8 443.4 790.8Z" fill="#FFFFFF"/><path d="M402.3 748C402.5 748 402.7 748 403 747.9L410.6 745.2 401.6 751.4C400.7 752 400.5 753.3 401.1 754.2 401.5 754.8 402.1 755.1 402.7 755.1 403.1 755.1 403.5 755 403.8 754.7L411.6 749.3 405 756.8C404.3 757.6 404.4 758.9 405.2 759.6 405.6 759.9 406 760.1 406.5 760.1 407.1 760.1 407.6 759.9 408 759.4L415.1 751.3 410.3 760.3C409.8 761.3 410.1 762.5 411.1 763 411.4 763.2 411.7 763.2 412 763.2 412.7 763.2 413.4 762.8 413.8 762.1L419.6 751.3C420.6 750.3 421.7 749.5 422.8 748.8 422.8 748.8 422.8 748.9 422.8 748.9 422.4 752 422.9 755.5 424.4 757.7 425 758.6 426.1 758.8 427 758.2 427.9 757.6 428.1 756.5 427.5 755.6 426.8 754.5 427.1 752.3 427.4 749.9 427.8 747 428.2 743.5 427.1 740.2L434.1 732.2 427.5 726.4 420.1 734.9C416.5 734 411.5 739.1 409.7 741L401.5 743.9C400.5 744.3 399.9 745.4 400.3 746.5 400.7 747.5 401.5 748 402.3 748Z" fill="#FFFFFF"/></g></svg>