<svg width="96" height="96" xmlns="http://www.w3.org/2000/svg" xmlns:xlink="http://www.w3.org/1999/xlink" xml:space="preserve" overflow="hidden"><g transform="translate(-505 -493)"><path d="M553 537C548 537 544 533 544 528 544 523 548 519 553 519 558 519 562 523 562 528 562 533 558 537 553 537ZM553 507C546.1 507 539.6 510.4 535.7 516.2 531.8 521.9 531 529.2 533.5 535.7L543 556.7 551.2 573.9C551.5 574.6 552.2 575 553 575 553.8 575 554.5 574.6 554.8 573.9L563 556.7 572.5 535.7C575 529.2 574.2 521.9 570.3 516.2 566.4 510.4 559.9 507 553 507Z" stroke="#FFFFFF" fill="#4371C3"/></g></svg>