<svg width="96" height="96" xmlns="http://www.w3.org/2000/svg" xmlns:xlink="http://www.w3.org/1999/xlink" xml:space="preserve" overflow="hidden"><g transform="translate(-433 -156)"><path d="M466 186.8C466 191.771 461.971 195.8 457 195.8 452.029 195.8 448 191.771 448 186.8 448 181.829 452.029 177.8 457 177.8 461.971 177.8 466 181.829 466 186.8Z" stroke="#FFFFFF" fill="#FFFFFF"/><path d="M514 186.8C514 191.771 509.971 195.8 505 195.8 500.029 195.8 496 191.771 496 186.8 496 181.829 500.029 177.8 505 177.8 509.971 177.8 514 181.829 514 186.8Z" stroke="#FFFFFF" fill="#FFFFFF"/><path d="M499 230.2 499 221.2C499 219.8 498.4 218.4 497.2 217.6 494.8 215.6 491.6 214.2 488.4 213.4 486.2 212.8 483.6 212.2 481 212.2 478.6 212.2 476 212.6 473.6 213.4 470.4 214.2 467.4 215.8 464.8 217.6 463.6 218.6 463 219.8 463 221.2L463 230.2 499 230.2Z" stroke="#FFFFFF" fill="#FFFFFF"/><path d="M490 200.8C490 205.771 485.971 209.8 481 209.8 476.029 209.8 472 205.771 472 200.8 472 195.829 476.029 191.8 481 191.8 485.971 191.8 490 195.829 490 200.8Z" stroke="#FFFFFF" fill="#FFFFFF"/><path d="M521.2 203.6C518.8 201.6 515.6 200.2 512.4 199.4 510.2 198.8 507.6 198.2 505 198.2 502.6 198.2 500 198.6 497.6 199.4 496.4 199.8 495.2 200.2 494 200.8L494 201C494 204.4 492.6 207.6 490.4 209.8 494.2 211 497.2 212.6 499.6 214.4 500.2 215 500.8 215.4 501.2 216.2L523 216.2 523 207.2C523 205.8 522.4 204.4 521.2 203.6Z" stroke="#FFFFFF" fill="#FFFFFF"/><path d="M462.4 214.4 462.4 214.4C465.2 212.4 468.4 210.8 471.6 209.8 469.4 207.4 468 204.4 468 201 468 200.8 468 200.8 468 200.6 466.8 200.2 465.6 199.6 464.4 199.4 462.2 198.8 459.6 198.2 457 198.2 454.6 198.2 452 198.6 449.6 199.4 446.4 200.4 443.4 201.8 440.8 203.6 439.6 204.4 439 205.8 439 207.2L439 216.2 460.6 216.2C461.2 215.4 461.6 215 462.4 214.4Z" stroke="#FFFFFF" fill="#FFFFFF"/></g></svg>