<svg width="96" height="96" xmlns="http://www.w3.org/2000/svg" xmlns:xlink="http://www.w3.org/1999/xlink" xml:space="preserve" overflow="hidden"><g><path d="M83 25C83 27.7614 80.7614 30 78 30 75.2386 30 73 27.7614 73 25 73 22.2386 75.2386 20 78 20 80.7614 20 83 22.2386 83 25Z" stroke="#FFFFFF" fill="#FFFFFF"/><path d="M63 25C63 27.7614 60.7614 30 58 30 55.2386 30 53 27.7614 53 25 53 22.2386 55.2386 20 58 20 60.7614 20 63 22.2386 63 25Z" stroke="#FFFFFF" fill="#FFFFFF"/><path d="M43 25C43 27.7614 40.7614 30 38 30 35.2386 30 33 27.7614 33 25 33 22.2386 35.2386 20 38 20 40.7614 20 43 22.2386 43 25Z" stroke="#FFFFFF" fill="#FFFFFF"/><path d="M23 25C23 27.7614 20.7614 30 18 30 15.2386 30 13 27.7614 13 25 13 22.2386 15.2386 20 18 20 20.7614 20 23 22.2386 23 25Z" stroke="#FFFFFF" fill="#FFFFFF"/><path d="M88.58 19.51C87.541 19.135 86.3948 19.6733 86.0198 20.7123 86.0129 20.7314 86.0063 20.7507 86 20.77L82.27 31.77C80.892 31.3059 79.4533 31.0465 78 31 76.5293 31.0443 75.0733 31.3071 73.68 31.78L70 20.77C69.5836 19.6875 68.3686 19.1475 67.2861 19.5639 66.7315 19.7772 66.2933 20.2155 66.08 20.77L62.35 31.77C60.9466 31.2973 59.4803 31.0378 58 31 56.5302 31.0454 55.0749 31.3048 53.68 31.77L50 20.77C49.5836 19.6875 48.3686 19.1475 47.2861 19.5639 46.7315 19.7772 46.2933 20.2155 46.08 20.77L42.36 31.77C40.9519 31.3023 39.4831 31.0429 38 31 36.5293 31.0443 35.0733 31.3071 33.68 31.78L30 20.77C29.5836 19.6875 28.3686 19.1475 27.2861 19.5639 26.7315 19.7772 26.2933 20.2155 26.08 20.77L22.35 31.77C20.9456 31.3016 19.4799 31.0422 18 31 16.5293 31.0443 15.0733 31.3071 13.68 31.78L10 20.77C9.64654 19.7234 8.51158 19.1615 7.465 19.515 6.41842 19.8685 5.85654 21.0034 6.21 22.05L11.15 36.64C11.4191 37.4374 12.1586 37.9811 13 38L13 44 10 59 13 59 13 76 17 76 17 59 19 59 19 76 23 76 23 59 26 59 23 44 23 38C23.8562 37.9979 24.616 37.4511 24.89 36.64L28 27.46 31.11 36.64C31.384 37.4511 32.1438 37.9979 33 38L33 76 37 76 37 53 39 53 39 76 43 76 43 38C43.8562 37.9979 44.616 37.4511 44.89 36.64L48 27.46 51.11 36.64C51.384 37.4511 52.1438 37.9979 53 38L53 44 50 59 53 59 53 76 57 76 57 59 59 59 59 76 63 76 63 59 66 59 63 44 63 38C63.8562 37.9979 64.616 37.4511 64.89 36.64L68 27.46 71.11 36.64C71.384 37.4511 72.1438 37.9979 73 38L73 76 77 76 77 53 79 53 79 76 83 76 83 38C83.8562 37.9979 84.616 37.4511 84.89 36.64L89.83 22.05C90.1868 21.0047 89.6287 19.868 88.5833 19.5111 88.5822 19.5108 88.5811 19.5104 88.58 19.51Z" stroke="#FFFFFF" fill="#FFFFFF"/></g></svg>